<?xml version="1.0" encoding="UTF-8" standalone="no"?>
<!-- Created with Inkscape (http://www.inkscape.org/) -->

<svg
   xmlns:dc="http://purl.org/dc/elements/1.1/"
   xmlns:cc="http://creativecommons.org/ns#"
   xmlns:rdf="http://www.w3.org/1999/02/22-rdf-syntax-ns#"
   xmlns:svg="http://www.w3.org/2000/svg"
   xmlns="http://www.w3.org/2000/svg"
   xmlns:sodipodi="http://sodipodi.sourceforge.net/DTD/sodipodi-0.dtd"
   xmlns:inkscape="http://www.inkscape.org/namespaces/inkscape"
   width="231.701"
   height="223.16"
   viewBox="0 0 231.70101 223.16001"
   id="svg2"
   version="1.1"
   inkscape:version="0.91 r13725"
   sodipodi:docname="home.svg">
  <defs
     id="defs4">
    <inkscape:path-effect
       effect="spiro"
       id="path-effect4157"
       is_visible="true" />
    <inkscape:path-effect
       effect="spiro"
       id="path-effect4153"
       is_visible="true" />
  </defs>
  <sodipodi:namedview
     id="base"
     pagecolor="#ffffff"
     bordercolor="#666666"
     borderopacity="1.0"
     inkscape:pageopacity="0.0"
     inkscape:pageshadow="2"
     inkscape:zoom="1.499177"
     inkscape:cx="159.88006"
     inkscape:cy="123.54955"
     inkscape:document-units="px"
     inkscape:current-layer="layer1"
     showgrid="false"
     inkscape:window-width="1366"
     inkscape:window-height="690"
     inkscape:window-x="0"
     inkscape:window-y="25"
     inkscape:window-maximized="1"
     showguides="true"
     inkscape:guide-bbox="true"
     units="px" />
  <metadata
     id="metadata7">
    <rdf:RDF>
      <cc:Work
         rdf:about="">
        <dc:format>image/svg+xml</dc:format>
        <dc:type
           rdf:resource="http://purl.org/dc/dcmitype/StillImage" />
        <dc:title></dc:title>
      </cc:Work>
    </rdf:RDF>
  </metadata>
  <g
     inkscape:label="Camada 1"
     inkscape:groupmode="layer"
     id="layer1"
     transform="translate(0,-829.20216)">
    <g
       id="g4159"
       style="fill:#ffffff;fill-opacity:1;stroke:none;stroke-opacity:1"
       transform="matrix(1.0974658,0,0,1.0974658,-443.76039,430.59714)"
       inkscape:export-xdpi="187"
       inkscape:export-ydpi="187">
      <path
         sodipodi:nodetypes="cccczcczcccczcczcc"
         inkscape:connector-curvature="0"
         inkscape:original-d="m 437.15512,460.68631 c 1.39635,0 73.65736,-60.74114 73.65736,-60.74114 l 74.70462,61.43932 -1.39635,64.93018 c 0,0 -0.25723,2.13856 -0.88149,2.94788 -0.62426,0.80932 -2.60938,1.59025 -2.60938,1.59025 l -49.57035,0.34909 c 0,0 -1.4625,-0.3138 -1.86976,-0.77925 -0.40727,-0.46545 -0.57385,-2.01345 -0.57385,-2.01345 l 0.058,-47.5941 -35.08729,-0.002 0.38245,43.40743 c 0,0 -0.15222,4.94712 -0.87271,5.71629 -0.7205,0.76918 -4.9745,0.91636 -4.9745,0.91636 l -47.12674,0.34909 c 0,0 -1.94705,-0.83336 -2.79451,-1.81592 -0.84747,-0.98256 -0.69636,-3.42039 -0.69636,-3.42039 z"
         inkscape:path-effect="#path-effect4153"
         id="path4151"
         d="m 437.15512,460.68631 73.65736,-60.74114 74.70462,61.43932 -1.39635,64.93018 c 0.0809,1.04598 -0.23965,2.11802 -0.88149,2.94788 -0.63724,0.8239 -1.58504,1.40153 -2.60938,1.59025 l -49.57035,0.34909 c -0.69688,0.0323 -1.40208,-0.26161 -1.86976,-0.77925 -0.48455,-0.53631 -0.70286,-1.30227 -0.57385,-2.01345 l 0.058,-47.5941 -35.08729,-0.002 0.38245,43.40743 c 0.009,0.98975 0.0696,1.97942 0.0422,2.96883 -0.0137,0.4947 -0.0599,0.99186 -0.19535,1.46787 -0.13541,0.476 -0.36589,0.93338 -0.71953,1.27959 -0.30864,0.30215 -0.70087,0.50969 -1.11165,0.64313 -0.41079,0.13343 -0.84154,0.19635 -1.27221,0.22907 -0.86135,0.0654 -1.72683,0.0378 -2.59064,0.0442 l -47.12674,0.34909 c -1.11884,-0.21412 -2.14437,-0.88053 -2.79451,-1.81592 -0.68271,-0.98225 -0.94069,-2.24941 -0.69636,-3.42039 l -0.34914,-65.27964 z"
         style="fill:#ffffff;fill-opacity:1;fill-rule:evenodd;stroke:none;stroke-width:1px;stroke-linecap:butt;stroke-linejoin:miter;stroke-opacity:1" />
      <path
         sodipodi:nodetypes="cczcccccccccc"
         inkscape:connector-curvature="0"
         inkscape:original-d="M 406.91888,465.29709 502.21963,384.658 c 0,0 6.53464,-3.06643 10.12352,-2.7927 3.58888,0.27373 10.12353,4.53813 10.12353,4.53813 l 30.37056,25.83244 1.74544,-28.97422 31.06874,1.04726 -0.34908,57.25027 29.67239,23.38883 -11.17078,14.31257 -92.50806,-76.10097 -92.15897,76.10097 z"
         inkscape:path-effect="#path-effect4157"
         id="path4155"
         d="M 406.91888,465.29709 502.21963,384.658 c 2.93475,-2.02762 6.56428,-3.02887 10.12352,-2.7927 3.76867,0.25007 7.42937,1.89107 10.12353,4.53813 l 30.37056,25.83244 1.74544,-28.97422 31.06874,1.04726 -0.34908,57.25027 29.67239,23.38883 -11.17078,14.31257 -92.50806,-76.10097 -92.15897,76.10097 -12.21804,-13.96349 z"
         style="fill:#ffffff;fill-opacity:1;fill-rule:evenodd;stroke:none;stroke-width:1px;stroke-linecap:butt;stroke-linejoin:miter;stroke-opacity:1" />
    </g>
  </g>
</svg>
