<?xml version="1.0" encoding="UTF-8" standalone="no"?>
<!-- Created with Inkscape (http://www.inkscape.org/) -->

<svg
   xmlns:dc="http://purl.org/dc/elements/1.1/"
   xmlns:cc="http://creativecommons.org/ns#"
   xmlns:rdf="http://www.w3.org/1999/02/22-rdf-syntax-ns#"
   xmlns:svg="http://www.w3.org/2000/svg"
   xmlns="http://www.w3.org/2000/svg"
   xmlns:sodipodi="http://sodipodi.sourceforge.net/DTD/sodipodi-0.dtd"
   xmlns:inkscape="http://www.inkscape.org/namespaces/inkscape"
   width="718"
   height="172"
   viewBox="0 0 718 172"
   id="svg2"
   version="1.1"
   inkscape:version="0.91 r13725"
   sodipodi:docname="logo.svg">
  <sodipodi:namedview
     id="base"
     pagecolor="#ffffff"
     bordercolor="#666666"
     borderopacity="1.0"
     inkscape:pageopacity="0.0"
     inkscape:pageshadow="2"
     inkscape:zoom="0.9899495"
     inkscape:cx="586.66379"
     inkscape:cy="143.87322"
     inkscape:document-units="px"
     inkscape:current-layer="layer1"
     showgrid="false"
     inkscape:window-width="1366"
     inkscape:window-height="690"
     inkscape:window-x="0"
     inkscape:window-y="25"
     inkscape:window-maximized="1"
     units="px"
     width="1mm"
     borderlayer="false"
     inkscape:showpageshadow="false" />
  <defs
     id="defs4" />
  <metadata
     id="metadata7">
    <rdf:RDF>
      <cc:Work
         rdf:about="">
        <dc:format>image/svg+xml</dc:format>
        <dc:type
           rdf:resource="http://purl.org/dc/dcmitype/StillImage" />
        <dc:title />
      </cc:Work>
    </rdf:RDF>
  </metadata>
  <g
     id="layer1"
     inkscape:groupmode="layer"
     inkscape:label="Camada 1"
     style="display:inline"
     transform="translate(0,-880.36376)">
    <rect
       style="fill:#ffffff;fill-opacity:1;fill-rule:nonzero;stroke:#000000;stroke-width:0;stroke-miterlimit:4;stroke-dasharray:none;stroke-opacity:1"
       id="rect4135"
       width="694.98492"
       height="153.5432"
       x="13.131988"
       y="890.73938"
       rx="26.109072"
       ry="26.017908" />
    <path
       style="fill:#002b00;fill-opacity:1;stroke:none;stroke-width:0;stroke-miterlimit:4;stroke-dasharray:none;stroke-opacity:1"
       d="M 30.710938 2.2128906 C 14.270295 2.2128906 1.0351562 14.351965 1.0351562 29.429688 L 1.0351562 143.39453 C 1.0351562 158.47225 14.270295 170.61133 30.710938 170.61133 L 687.61328 170.61133 C 704.05392 170.61133 717.28906 158.47225 717.28906 143.39453 L 717.28906 29.429688 C 717.28906 14.351965 704.05392 2.2128906 687.61328 2.2128906 L 30.710938 2.2128906 z M 401 61.394531 C 408.10265 61.394531 412.30838 65.186686 414.58398 67.53125 L 418.16992 62.222656 C 418.72158 61.395163 418.99761 61.394531 419.27344 61.394531 C 420.03197 61.394531 420.0332 61.876546 420.0332 63.048828 L 420.0332 79.392578 C 420.0332 80.840691 420.03301 81.046875 418.92969 81.046875 C 418.03324 81.046875 417.96409 80.840409 417.82617 79.875 C 416.24014 69.255506 409.2066 63.533203 401.82812 63.533203 C 397.07004 63.533203 382.93359 66.153556 382.93359 86.496094 C 382.93359 105.80427 395.89656 109.38867 401.96484 109.38867 C 409.68811 109.38867 417.75693 103.87192 418.30859 93.873047 C 418.37755 93.183469 418.37818 92.771484 419.13672 92.771484 C 420.03317 92.771484 420.0332 93.253782 420.0332 93.943359 C 420.0332 102.14933 412.72222 111.52734 401.06836 111.52734 C 387.41472 111.52734 375.83008 100.49316 375.83008 86.425781 C 375.83008 72.427357 387.41532 61.394531 401 61.394531 z M 46.705078 62.912109 C 49.1186 63.118983 54.496194 63.119141 57.185547 63.119141 C 60.012815 63.119141 66.289005 63.118983 68.771484 62.912109 L 68.771484 65.048828 L 66.496094 65.048828 C 59.945107 65.048828 59.945312 66.014811 59.945312 68.359375 L 59.945312 105.11328 C 59.945313 107.38889 60.083204 107.87305 63.324219 107.87305 L 69.804688 107.87305 C 82.492915 107.87305 83.460215 99.114526 84.21875 92.21875 L 85.941406 92.21875 L 84.011719 110.00977 L 46.705078 110.00977 L 46.705078 107.87305 L 48.359375 107.87305 C 53.669122 107.87305 53.806641 107.11334 53.806641 104.63086 L 53.806641 68.291016 C 53.806641 65.808536 53.669122 65.048828 48.359375 65.048828 L 46.705078 65.048828 L 46.705078 62.912109 z M 488.46875 73.392578 C 489.22729 73.392578 489.57258 73.806832 489.98633 74.910156 L 501.8457 105.52734 C 502.74215 107.94087 503.36298 108.28516 507.22461 108.28516 L 507.22461 110.00977 C 505.56962 109.94081 502.88167 109.80273 500.53711 109.80273 L 493.22656 110.00977 L 493.22656 108.28516 C 494.39884 108.28516 496.88086 108.28629 496.88086 106.35547 C 496.88086 105.94172 495.98526 103.59791 495.43359 102.21875 L 493.91602 98.355469 L 479.64258 98.355469 C 477.29801 104.49271 477.29688 104.63193 477.29688 105.18359 C 477.29688 105.80421 477.50416 108.14724 480.40039 108.28516 L 480.40039 110.00977 L 474.67773 109.80273 C 473.16066 109.80273 471.15965 109.87185 469.64258 110.00977 L 469.64258 108.28516 C 473.98692 108.14724 475.15943 105.04545 475.91797 103.18359 L 487.02148 74.703125 C 487.36627 73.806674 487.50334 73.392578 488.46875 73.392578 z M 582.20898 73.392578 C 582.96752 73.392578 583.31086 73.806832 583.72461 74.910156 L 595.58594 105.52734 C 596.48239 107.94087 597.10321 108.28516 600.96484 108.28516 L 600.96484 110.00977 C 599.30986 109.94081 596.61995 109.80273 594.27539 109.80273 L 586.9668 110.00977 L 586.9668 108.28516 C 588.13908 108.28516 590.62109 108.28629 590.62109 106.35547 C 590.62109 105.94172 589.72354 103.59791 589.17188 102.21875 L 587.65625 98.355469 L 573.38086 98.355469 C 571.0363 104.49271 571.03711 104.63193 571.03711 105.18359 C 571.03711 105.80421 571.2444 108.14724 574.14062 108.28516 L 574.14062 110.00977 L 568.41602 109.80273 C 566.89894 109.80273 564.89988 109.87185 563.38281 110.00977 L 563.38281 108.28516 C 567.72715 108.14724 568.89967 105.04545 569.6582 103.18359 L 580.75977 74.703125 C 581.10455 73.806674 581.24358 73.392578 582.20898 73.392578 z M 665.98047 73.392578 C 666.739 73.392578 667.0843 73.806832 667.49805 74.910156 L 679.35938 105.52734 C 680.25583 107.94087 680.87665 108.28516 684.73828 108.28516 L 684.73828 110.00977 C 683.0833 109.94081 680.39339 109.80273 678.04883 109.80273 L 670.73828 110.00977 L 670.73828 108.28516 C 671.91056 108.28516 674.39453 108.28629 674.39453 106.35547 C 674.39453 105.94172 673.49697 103.59791 672.94531 102.21875 L 671.42773 98.355469 L 657.1543 98.355469 C 654.80973 104.49271 654.81055 104.63193 654.81055 105.18359 C 654.81055 105.80421 655.01588 108.14724 657.91211 108.28516 L 657.91211 110.00977 L 652.18945 109.80273 C 650.67238 109.80273 648.67332 109.87185 647.15625 110.00977 L 647.15625 108.28516 C 651.50059 108.14724 652.67311 105.04545 653.43164 103.18359 L 664.5332 74.703125 C 664.87799 73.806674 665.01506 73.392578 665.98047 73.392578 z M 215.14648 73.599609 C 225.35223 73.599609 233.55859 82.151076 233.55859 92.425781 C 233.55859 102.8384 225.21432 110.97461 215.14648 110.97461 C 205.07865 110.97461 196.73438 102.8384 196.73438 92.425781 C 196.73438 82.151076 204.87178 73.599609 215.14648 73.599609 z M 92.740234 74.566406 L 100.46289 74.773438 L 108.1875 74.566406 L 108.1875 76.289062 C 103.2915 76.289062 102.94727 76.634426 102.94727 79.599609 L 102.94727 104.97656 C 102.94727 107.94175 103.2915 108.28516 108.1875 108.28516 L 108.1875 110.00977 L 100.46289 109.80273 L 92.740234 110.00977 L 92.740234 108.28516 C 97.636235 108.28516 97.980469 107.94175 97.980469 104.97656 L 97.980469 79.599609 C 97.980469 76.634426 97.636235 76.289062 92.740234 76.289062 L 92.740234 74.566406 z M 112.58203 74.566406 C 114.44389 74.704322 117.27155 74.773438 119.06445 74.773438 L 126.30469 74.566406 L 126.30469 76.289062 C 125.13241 76.289062 122.78711 76.290484 122.78711 78.152344 C 122.78711 78.428175 122.78818 78.565401 123.33984 79.806641 L 133.68359 104.63086 L 143.47461 81.324219 C 143.8194 80.565683 144.02734 80.012442 144.02734 79.253906 C 144.02734 77.943709 143.54438 76.495936 141.13086 76.289062 L 141.13086 74.566406 C 142.99272 74.704322 144.9233 74.773438 146.78516 74.773438 C 148.23327 74.773438 150.09486 74.704322 151.54297 74.566406 L 151.54297 76.289062 C 150.5086 76.35802 147.40483 76.497458 145.54297 80.841797 L 133.54492 109.38867 C 133.13118 110.35408 132.99275 110.76758 132.02734 110.76758 C 131.13089 110.76758 130.99382 110.28512 130.58008 109.38867 L 117.75391 79.048828 C 116.7885 76.773222 116.37471 76.289062 112.58203 76.289062 L 112.58203 74.566406 z M 156.32031 74.566406 L 172.87109 74.566406 C 181.21498 74.566406 187.35156 79.047957 187.35156 83.875 C 187.35156 88.081423 183.07704 91.184542 178.25 92.425781 C 183.42183 94.425556 184.11045 97.941947 184.66211 100.35547 C 185.55856 104.76877 185.97178 106.69941 186.52344 107.80273 C 186.93718 108.56127 187.55834 109.45898 188.9375 109.45898 C 189.4202 109.45898 191.90206 109.39002 192.38477 105.18359 C 192.38477 104.90776 192.45436 104.28711 193.21289 104.28711 C 194.10934 104.28711 194.10938 104.97552 194.10938 105.32031 C 194.10937 106.69947 193.07541 110.97461 188.66211 110.97461 C 185.55901 110.97461 182.79983 109.94046 181.55859 108.69922 C 179.35195 106.56153 179.35352 105.32062 179.35352 101.45898 C 179.35352 98.424843 179.35241 96.770977 177.9043 95.253906 C 175.76661 93.116216 173.97394 93.046875 172.25 93.046875 L 166.04297 93.046875 L 166.04297 105.04492 C 166.04297 107.87219 166.38764 108.28516 171.00781 108.28516 L 171.00781 110.00977 L 163.63086 109.80273 L 156.32031 110.00977 L 156.32031 108.28516 C 160.94048 108.28516 161.28516 107.87219 161.28516 105.04492 L 161.28516 79.53125 C 161.28516 76.703982 160.94048 76.289062 156.32031 76.289062 L 156.32031 74.566406 z M 266.35742 74.566406 L 285.73438 74.566406 C 295.66429 74.566406 302.76562 83.048283 302.76562 92.564453 C 302.76562 102.01167 295.45742 110.00977 285.73438 110.00977 L 266.35742 110.00977 L 266.35742 108.28516 C 270.97759 108.28516 271.32227 107.87219 271.32227 105.04492 L 271.32227 79.53125 C 271.32227 76.703982 270.97759 76.289062 266.35742 76.289062 L 266.35742 74.566406 z M 427.97266 74.566406 L 435.41992 74.773438 L 442.86914 74.566406 L 442.86914 76.289062 C 438.24897 76.289062 437.90234 76.703982 437.90234 79.53125 L 437.90234 90.701172 L 454.38477 90.701172 L 454.38477 79.53125 C 454.38477 76.703982 454.04009 76.289062 449.41992 76.289062 L 449.41992 74.566406 L 456.86719 74.773438 L 464.31445 74.566406 L 464.31445 76.289062 C 459.69428 76.289062 459.34961 76.703982 459.34961 79.53125 L 459.34961 105.04492 C 459.34961 107.87219 459.69428 108.28516 464.31445 108.28516 L 464.31445 110.00977 L 456.86719 109.80273 L 449.41992 110.00977 L 449.41992 108.28516 C 454.04009 108.28516 454.38477 107.87219 454.38477 105.04492 L 454.38477 92.425781 L 437.90234 92.425781 L 437.90234 105.04492 C 437.90234 107.87219 438.24897 108.28516 442.86914 108.28516 L 442.86914 110.00977 L 435.41992 109.80273 L 427.97266 110.00977 L 427.97266 108.28516 C 432.59283 108.28516 432.9375 107.87219 432.9375 105.04492 L 432.9375 79.53125 C 432.9375 76.703982 432.59283 76.289062 427.97266 76.289062 L 427.97266 74.566406 z M 512.83008 74.566406 L 521.17383 74.566406 C 522.62194 74.566406 523.03683 74.565401 523.51953 75.806641 L 535.37891 104.83789 L 547.17188 75.875 C 547.72354 74.564803 547.9296 74.566406 549.51562 74.566406 L 557.85938 74.566406 L 557.85938 76.289062 C 553.23921 76.289062 552.89453 76.703982 552.89453 79.53125 L 552.89453 105.04492 C 552.89453 107.87219 553.23921 108.28516 557.85938 108.28516 L 557.85938 110.00977 C 555.58377 109.94081 553.10102 109.80273 550.6875 109.80273 L 543.51562 110.00977 L 543.51562 108.28516 C 548.13579 108.28516 548.48047 107.87219 548.48047 105.04492 L 548.48047 76.634766 L 548.41211 76.566406 L 535.31055 108.76953 C 535.03472 109.39015 534.68958 110.00977 534 110.00977 C 533.31042 110.00977 532.96528 109.39015 532.68945 108.76953 L 519.79492 77.048828 L 519.72656 77.117188 L 519.72656 103.04492 C 519.72656 104.63095 519.72645 108.28516 524.69141 108.28516 L 524.69141 110.00977 C 522.96746 109.87185 519.79413 109.80273 518.75977 109.80273 L 512.83008 110.00977 L 512.83008 108.28516 C 517.79504 108.28516 517.79492 104.63095 517.79492 103.04492 L 517.79492 79.53125 C 517.79492 76.703982 517.45025 76.289062 512.83008 76.289062 L 512.83008 74.566406 z M 606.43164 74.566406 L 625.80859 74.566406 C 635.73851 74.566406 642.8418 83.048283 642.8418 92.564453 C 642.8418 102.01167 635.53164 110.00977 625.80859 110.00977 L 606.43164 110.00977 L 606.43164 108.28516 C 611.05181 108.28516 611.39648 107.87219 611.39648 105.04492 L 611.39648 79.53125 C 611.39648 76.703982 611.05181 76.289062 606.43164 76.289062 L 606.43164 74.566406 z M 309.18359 74.773438 L 339.86914 74.773438 L 341.17969 86.425781 L 339.45508 86.425781 C 338.69654 78.909386 336.9034 76.496094 328.9043 76.496094 L 321.87109 76.496094 C 319.45757 76.496094 319.11328 76.702627 319.11328 79.460938 L 319.11328 90.839844 L 323.93945 90.839844 C 329.04233 90.839844 329.86914 89.460013 329.86914 84.839844 L 331.59375 84.839844 L 331.59375 98.5625 L 329.86914 98.5625 C 329.86914 93.94233 329.04233 92.564453 323.93945 92.564453 L 319.11328 92.564453 L 319.11328 105.32031 C 319.11328 108.07862 319.45757 108.28516 321.87109 108.28516 L 329.31836 108.28516 C 338.14495 108.28516 339.80037 104.9767 340.97266 96.632812 L 342.69531 96.632812 L 340.69727 110.00977 L 309.18359 110.00977 L 309.18359 108.28516 C 313.80376 108.28516 314.14844 107.87219 314.14844 105.04492 L 314.14844 79.738281 C 314.14844 76.911013 313.80376 76.496094 309.18359 76.496094 L 309.18359 74.773438 z M 215.14648 75.324219 C 210.52631 75.324219 202.66602 78.703911 202.66602 91.667969 C 202.66602 105.25265 210.25048 109.18164 215.14648 109.18164 C 220.04249 109.18164 227.62891 105.25265 227.62891 91.667969 C 227.62891 78.772868 219.83561 75.324219 215.14648 75.324219 z M 170.45703 76.289062 C 169.21579 76.289062 167.3538 76.28922 166.87109 76.496094 C 166.18152 76.840883 166.04297 77.529962 166.04297 79.253906 L 166.04297 91.529297 L 172.11133 91.529297 C 181.07584 91.529297 181.42188 86.564352 181.42188 83.875 C 181.42188 76.49652 175.55991 76.289062 170.45703 76.289062 z M 278.83789 76.289062 C 276.42437 76.289062 276.08008 76.495596 276.08008 79.253906 L 276.08008 105.32031 C 276.08008 108.07862 276.42437 108.28516 278.83789 108.28516 L 284.14844 108.28516 C 290.49255 108.28516 293.45722 104.83738 294.56055 103.32031 C 296.00866 101.11366 297.04297 98.218989 297.04297 92.564453 C 297.04297 85.59972 295.52684 82.702302 294.00977 80.771484 C 293.04436 79.530245 290.0788 76.289062 284.14844 76.289062 L 278.83789 76.289062 z M 618.91211 76.289062 C 616.49859 76.289062 616.1543 76.495596 616.1543 79.253906 L 616.1543 105.32031 C 616.1543 108.07862 616.49859 108.28516 618.91211 108.28516 L 624.22266 108.28516 C 630.56677 108.28516 633.53144 104.83738 634.63477 103.32031 C 636.08288 101.11366 637.11719 98.218989 637.11719 92.564453 C 637.11719 85.59972 635.60106 82.702302 634.08398 80.771484 C 633.11858 79.530245 630.15302 76.289062 624.22266 76.289062 L 618.91211 76.289062 z M 486.81445 80.013672 L 480.33203 96.632812 L 493.22656 96.632812 L 486.81445 80.013672 z M 580.55273 80.013672 L 574.07031 96.632812 L 586.9668 96.632812 L 580.55273 80.013672 z M 664.32617 80.013672 L 657.84375 96.632812 L 670.73828 96.632812 L 664.32617 80.013672 z "
       id="rect4136"
       transform="translate(0,880.36376)" />
  </g>
  <g
     inkscape:groupmode="layer"
     inkscape:label="Web Slicer"
     id="webslicer-layer"
     style="display:inline"
     transform="translate(0,-880.36376)" />
</svg>
